<svg width="15" height="15" viewBox="0 0 15 15" fill="none" xmlns="http://www.w3.org/2000/svg">
<path fill-rule="evenodd" clip-rule="evenodd" d="M7.0879 1.31628C7.33322 1.2293 7.60674 1.22786 7.85646 1.31237L12.0049 2.70397C12.4692 2.85902 12.7836 3.28552 12.7861 3.76354L12.8125 7.91393C12.8207 9.17217 12.3615 10.3924 11.5215 11.3485C11.1352 11.7873 10.6401 12.1648 10.0078 12.5018L7.77833 13.6932C7.70849 13.73 7.63112 13.7493 7.55372 13.7499C7.47649 13.7504 7.39917 13.7322 7.33009 13.6962L5.07912 12.5311C4.44001 12.1996 3.94083 11.828 3.55079 11.3954C2.69698 10.4491 2.22206 9.23454 2.21388 7.97448L2.18751 3.82702C2.18514 3.3485 2.49337 2.91884 2.95509 2.75768L7.0879 1.31628ZM9.84083 5.76159C9.65522 5.58324 9.35597 5.5847 9.17287 5.76549L7.0674 7.84069L6.20509 7.01159C6.01945 6.83358 5.72171 6.83579 5.5381 7.01647C5.35516 7.19724 5.35655 7.48757 5.54201 7.66589L6.74025 8.81823C6.83325 8.90739 6.95368 8.95122 7.07423 8.95007C7.19504 8.94945 7.31538 8.90405 7.40724 8.81335L9.84474 6.411C10.0275 6.23025 10.0255 5.93985 9.84083 5.76159Z" fill="#003458"/>
</svg>
